# xmcd
#
# Track frame offsets:
#	150
#	18032
#	33765
#	52015
#	63645
#	76805
#	89562
#	106912
#	120907
#	135907
#	152375
#	168877
#
# Disc length: 2467 seconds
#
# Revision: 4
# Processed by: cddbd v1.5.2PL0 Copyright (c) Steve Scherf et al.
# Submitted via: audiograbber 1.83.01
#
DISCID=7f09a10c
DTITLE=Various Artist - New Country - May 1995
DYEAR=1995
DGENRE=Country
TTITLE0=Kim Richey - Those Words We Said
TTITLE1=Michael Hall - A New Favorite Place
TTITLE2=Blackhawk - That's Just About Right
TTITLE3=Terry Radigan - Half A Million Teardrops
TTITLE4=Tish Hinojosa - Pajarillo Barranqueño (Little Riverside Bird)
TTITLE5=Tim O'Brien - Rock In My Shoe
TTITLE6=4 Runner - Cain's Blood
TTITLE7=Shane Sutton - I've Got Your Number
TTITLE8=Susie Luchsinger - Take It To The Rock
TTITLE9=The Highwaymen - It Is What It Is
TTITLE10=Michael Anderson - Deal With The Devil
TTITLE11=Tom Christopher - Love Knows No Bounds
EXTD=
EXTT0=
EXTT1=
EXTT2=
EXTT3=
EXTT4=
EXTT5=
EXTT6=
EXTT7=
EXTT8=
EXTT9=
EXTT10=
EXTT11=
PLAYORDER=
